<?xml version="1.0" encoding="UTF-8" standalone="no"?>
<svg
   width="43"
   height="14"
   viewBox="0 0 43 14"
   fill="none"
   version="1.1"
   id="svg1"
   sodipodi:docname="logo.svg"
   inkscape:version="1.4 (86a8ad7, 2024-10-11)"
   xmlns:inkscape="http://www.inkscape.org/namespaces/inkscape"
   xmlns:sodipodi="http://sodipodi.sourceforge.net/DTD/sodipodi-0.dtd"
   xmlns="http://www.w3.org/2000/svg"
   xmlns:svg="http://www.w3.org/2000/svg">
  <sodipodi:namedview
     id="namedview1"
     pagecolor="#ffffff"
     bordercolor="#000000"
     borderopacity="0.25"
     inkscape:showpageshadow="2"
     inkscape:pageopacity="0.0"
     inkscape:pagecheckerboard="0"
     inkscape:deskcolor="#d1d1d1"
     inkscape:zoom="6.5407377"
     inkscape:cx="39.062872"
     inkscape:cy="13.07192"
     inkscape:window-width="1920"
     inkscape:window-height="1017"
     inkscape:window-x="-8"
     inkscape:window-y="-8"
     inkscape:window-maximized="1"
     inkscape:current-layer="g1" />
  <g
     clip-path="url(#clip0_2934_7644)"
     id="g1">
    <path
       fill-rule="evenodd"
       clip-rule="evenodd"
       d="m 23.210732,7.1048385 c 0,-4.264905 2.656567,-6.61736604 8.804633,-6.61736604 h 1.650836 c 6.129083,0 8.823615,2.40323324 8.823615,6.65118794 0,4.2649126 -2.656567,6.6512306 -8.823615,6.6512306 h -1.669819 c -6.091118,0 -8.78565,-2.43711 -8.78565,-6.6850525 z m 8.381565,4.2380275 V 6.3107443 h -3.44826 V 4.4942287 c 2.728279,-0.045148 3.422993,-0.6092715 3.890355,-1.6134383 h 3.297321 V 11.342866 Z M 0.30577625,0.82937497 V 13.522488 H 4.1198444 V 3.8926504 h 0.2656565 l 4.9526123,9.6298376 h 3.3776028 l 4.933612,-9.6298376 h 0.303635 v 9.6298376 h 3.814073 V 0.82937497 H 15.732822 L 11.216654,9.9684277 H 10.932045 L 6.3020242,0.82937497 Z"
       fill="#dafebe"
       id="path1"
       style="stroke-width:0.414984" />
  </g>
  <defs
     id="defs1">
    <clipPath
       id="clip0_2934_7644">
      <rect
         width="96.000603"
         height="33.9422"
         fill="#ffffff"
         transform="translate(0,0.0288086)"
         id="rect1"
         x="0"
         y="0" />
    </clipPath>
  </defs>
</svg>
