<?xml version="1.0" encoding="UTF-8" standalone="no"?>
<!-- Created with Inkscape (http://www.inkscape.org/) -->

<svg
   width="348mm"
   height="79mm"
   viewBox="0 0 348 79"
   version="1.1"
   id="svg1"
   inkscape:version="1.4 (86a8ad7, 2024-10-11)"
   sodipodi:docname="logo.svg"
   xmlns:inkscape="http://www.inkscape.org/namespaces/inkscape"
   xmlns:sodipodi="http://sodipodi.sourceforge.net/DTD/sodipodi-0.dtd"
   xmlns="http://www.w3.org/2000/svg"
   xmlns:svg="http://www.w3.org/2000/svg">
  <sodipodi:namedview
     id="namedview1"
     pagecolor="#ffffff"
     bordercolor="#000000"
     borderopacity="0.25"
     inkscape:showpageshadow="2"
     inkscape:pageopacity="0.0"
     inkscape:pagecheckerboard="0"
     inkscape:deskcolor="#d1d1d1"
     inkscape:document-units="mm"
     inkscape:zoom="0.72604517"
     inkscape:cx="547.48659"
     inkscape:cy="-3.4433119"
     inkscape:window-width="1920"
     inkscape:window-height="1017"
     inkscape:window-x="-8"
     inkscape:window-y="-8"
     inkscape:window-maximized="1"
     inkscape:current-layer="layer1" />
  <defs
     id="defs1" />
  <g
     inkscape:label="Layer 1"
     inkscape:groupmode="layer"
     id="layer1">
    <path
       fill-rule="evenodd"
       clip-rule="evenodd"
       d="m 228.96546,34.464063 c -17.80805,0 -25.50292,7.62067 -25.50292,21.43655 0,13.76101 7.80467,21.65591 25.44736,21.65591 h 4.83658 c 17.86466,0 25.55875,-7.73033 25.55875,-21.54624 0,-13.76109 -7.80521,-21.54622 -25.55875,-21.54622 z m -1.22529,34.61177 c 0,0.30586 0.24792,0.55377 0.55378,0.55377 h 9.7229 c 0.30692,0 0.55563,-0.24791 0.55563,-0.55377 v -26.30496 c 0,-0.30585 -0.24871,-0.5538 -0.55563,-0.5538 h -8.62806 c -0.22225,0 -0.42333,0.13531 -0.51329,0.33954 -1.32503,2.96654 -3.39646,4.66231 -10.57698,4.87405 -0.30163,0.009 -0.54663,0.25485 -0.54663,0.55669 v 4.78713 c 0,0.30586 0.24818,0.5538 0.55403,0.5538 h 8.88048 c 0.30586,0 0.55377,0.24794 0.55377,0.55377 z m 35.12635,-21.57558 c 0,-0.30586 0.24871,-0.5538 0.55298,-0.5538 h 9.50119 c 0.30692,0 0.55298,0.24794 0.55298,0.5538 v 2.56019 c 0,0.58867 0.90488,0.82563 1.26207,0.35909 2.2807,-2.96296 5.92137,-4.45992 11.32681,-4.45992 h 1.86796 c 9.17839,0 14.01498,4.33117 14.01498,15.18639 v 14.85212 c 0,0.30586 -0.24871,0.55377 -0.55298,0.55377 h -9.88484 c -0.30691,0 -0.55562,-0.24791 -0.55562,-0.55377 v -14.79709 c 0,-4.44089 -2.8575,-6.46943 -8.29733,-6.46943 h -0.98955 c -5.88168,0 -7.8052,2.41231 -7.8052,6.5242 v 14.74232 c 0,0.30586 -0.24871,0.55377 -0.55298,0.55377 h -9.88749 c -0.30427,0 -0.55298,-0.24791 -0.55298,-0.55377 z m 59.30107,30.03854 c -12.64179,0 -17.75354,-4.55057 -17.75354,-15.78954 0,-11.18433 5.11175,-15.78964 17.8091,-15.78964 h 5.10911 c 12.25814,0 17.5895,4.76977 17.5895,14.52861 v 3.3388 c 0,0.30586 -0.24871,0.55378 -0.55298,0.55378 h -28.83959 c -0.33073,0 -0.58737,0.28786 -0.53975,0.6133 0.62177,4.12935 2.82046,5.52715 8.22061,5.52715 h 2.86014 c 4.71752,0 7.42686,-1.14618 7.99042,-3.3491 0.0714,-0.27384 0.30163,-0.48868 0.58473,-0.48868 h 9.52765 c 0.33602,0 0.59795,0.2995 0.53445,0.63076 -1.28058,6.86647 -7.01939,10.22456 -17.26406,10.22456 z m 11.70252,-19.18875 c 0.30692,0 0.55563,-0.24979 0.53446,-0.55483 -0.25136,-3.43159 -2.90248,-4.81801 -8.33438,-4.81801 h -2.69345 c -5.19113,0 -7.44273,1.22285 -8.23119,4.7312 -0.0741,0.33346 0.18785,0.64164 0.52916,0.64164 z M 3.6092535,75.582733 c 0,0.30585 0.2479384,0.55377 0.5537888,0.55377 h 9.9400617 c 0.305859,0 0.5538,-0.24792 0.5538,-0.55377 v -30.17264 c 0,-0.259 0.209947,-0.46897 0.468974,-0.46897 0.183144,0 0.349541,0.10663 0.426058,0.27302 l 14.071627,30.6001 c 0.09036,0.19632 0.286861,0.32226 0.503025,0.32226 h 9.073355 c 0.21643,0 0.41328,-0.12621 0.503503,-0.32306 L 53.70255,45.253673 c 0.08731,-0.19045 0.277547,-0.31255 0.487097,-0.31255 0.295805,0 0.535517,0.23982 0.535517,0.53562 v 30.10599 c 0,0.30585 0.247915,0.55377 0.553773,0.55377 h 9.940131 c 0.305858,0 0.553773,-0.24792 0.553773,-0.55377 v -40.01115 c 0,-0.30585 -0.247915,-0.55378 -0.553773,-0.55378 h -16.56371 c -0.21934,0 -0.418042,0.12939 -0.506677,0.32997 l -12.789694,28.94545 c -0.08864,0.20055 -0.287337,0.32993 -0.506412,0.32993 h -0.106627 c -0.217488,0 -0.414867,-0.127 -0.504561,-0.32517 L 21.12504,35.343073 c -0.08972,-0.19805 -0.28702,-0.32527 -0.504454,-0.32527 H 4.1630423 c -0.3058504,0 -0.5537888,0.24794 -0.5537888,0.55379 z m 124.9658765,0.55377 c -7.03527,0 -9.61839,-2.85089 -9.61839,-10.08777 v -11.94631 c 0,-0.30586 -0.24792,-0.55377 -0.55378,-0.55377 h -7.41177 c -0.30586,0 -0.55377,-0.24794 -0.55377,-0.5538 v -5.91002 c 0,-0.30584 0.24791,-0.55378 0.55377,-0.55378 h 7.41177 c 0.30586,0 0.55378,-0.24794 0.55378,-0.5538 v -7.66442 c 0,-0.30586 0.24791,-0.55377 0.55377,-0.55377 h 9.83006 c 0.30586,0 0.55378,0.24791 0.55378,0.55377 v 7.66442 c 0,0.30586 0.24791,0.5538 0.55377,0.5538 h 9.8851 c 0.30586,0 0.55377,0.24794 0.55377,0.55378 v 5.91002 c 0,0.30586 -0.24791,0.5538 -0.55377,0.5538 h -9.8851 c -0.30586,0 -0.55377,0.24791 -0.55377,0.55377 v 10.63054 c 0,2.19286 0.6596,2.85088 2.91306,2.85088 h 7.63587 c 0.30586,0 0.55378,0.24792 0.55378,0.55378 v 7.44511 c 0,0.30585 -0.24792,0.55377 -0.55378,0.55377 z m 18.82114,0 c -0.30586,0 -0.55377,-0.24792 -0.55377,-0.55377 v -28.4979 c 0,-0.30586 0.24791,-0.55378 0.55377,-0.55378 h 9.8851 c 0.30586,0 0.55377,0.24794 0.55377,0.55378 v 28.4979 c 0,0.30585 -0.24791,0.55377 -0.55377,0.55377 z m 0,-33.49802 c -0.30586,0 -0.55377,-0.24794 -0.55377,-0.5538 v -6.5131 c 0,-0.30585 0.24791,-0.55378 0.55377,-0.55378 h 9.8851 c 0.30586,0 0.55377,0.24793 0.55377,0.55378 v 6.5131 c 0,0.30586 -0.24791,0.5538 -0.55377,0.5538 z m -61.766185,33.31281 c -12.641792,0 -17.753542,-4.55057 -17.753542,-15.78954 0,-11.18433 5.11175,-15.78964 17.809104,-15.78964 h 5.109104 c 12.258149,0 17.589499,4.76977 17.589499,14.52861 v 3.3388 c 0,0.30586 -0.24871,0.55378 -0.55298,0.55378 H 78.991689 c -0.330729,0 -0.587375,0.28786 -0.53975,0.6133 0.621771,4.12935 2.820458,5.52715 8.220604,5.52715 h 2.860146 c 4.71752,0 7.426854,-1.14618 7.990416,-3.3491 0.07144,-0.27384 0.301625,-0.48868 0.584729,-0.48868 h 9.527646 c 0.33602,0 0.59796,0.2995 0.53446,0.63076 -1.28058,6.86647 -7.0194,10.22456 -17.264064,10.22456 z m 11.70252,-19.18875 c 0.306917,0 0.555625,-0.24979 0.534459,-0.55483 -0.251355,-3.43159 -2.90248,-4.81801 -8.334375,-4.81801 H 86.83923 c -5.191125,0 -7.442729,1.22285 -8.231187,4.7312 -0.07408,0.33346 0.187854,0.64164 0.529167,0.64164 z"
       fill="#1a1a1a"
       id="path1"
       sodipodi:nodetypes="sssssssssssssscsssssssssssscsssssssssssssssssssssssscsscsscssscsscssssssssccssccsssssssssccssccssssssssssssssssssssssssssssssssssssssssssssssssssssssssssscsscsscssscsscss"
       style="fill:#dafebe;fill-opacity:1;stroke-width:0.264583" />
    <path
       id="text3"
       style="font-size:292.071px;font-family:Corbel;-inkscape-font-specification:Corbel;text-align:start;writing-mode:lr-tb;direction:ltr;text-anchor:start;fill:#dafebe;fill-opacity:1;stroke:#dafebe;stroke-width:3.23162;stroke-dasharray:none;stroke-opacity:1;paint-order:stroke markers fill"
       d="m 180.51167,45.241503 c -2.18773,0 -4.2628,0.17486 -6.22533,0.52397 -1.96253,0.3491 -3.68371,0.87266 -5.16365,1.57087 -1.47994,0.69821 -2.6541,1.58061 -3.52276,2.64732 -0.86866,1.0667 -1.30319,2.3272 -1.30319,3.7818 0,1.41581 0.41809,2.57951 1.25458,3.49106 0.86866,0.89215 1.99506,1.6002 3.37848,2.12386 1.38342,0.52366 2.91147,0.93115 4.58445,1.22207 1.70515,0.29092 3.37804,0.54282 5.01885,0.75616 1.25473,0.17455 2.44533,0.36867 3.57137,0.58201 1.15821,0.21335 2.17161,0.4845 3.04027,0.81421 0.86866,0.32971 1.56,0.74683 2.07477,1.2511 0.51476,0.50426 0.77208,1.14439 0.77208,1.92018 0,0.75639 -0.28917,1.42541 -0.86827,2.00725 -0.54693,0.56245 -1.35129,1.03786 -2.41298,1.42575 -1.02953,0.3685 -2.26841,0.6498 -3.71617,0.84374 -1.44777,0.19395 -3.07238,0.29076 -4.87405,0.29076 -2.28426,0 -4.37525,-0.13584 -6.27343,-0.40736 -1.89818,-0.27153 -3.81249,-0.64 -5.74285,-1.10547 v 3.78181 c 0.48259,0.15515 1.09382,0.31987 1.83379,0.49443 0.73996,0.17455 1.62444,0.33978 2.65396,0.49493 1.0617,0.17456 2.26821,0.31039 3.61946,0.40737 1.38343,0.11636 2.91148,0.17414 4.58446,0.17414 2.73467,0 5.24427,-0.19361 7.52853,-0.58151 2.28425,-0.36849 4.24684,-0.91182 5.88764,-1.62942 1.6408,-0.737 2.91152,-1.63866 3.81236,-2.70537 0.90083,-1.0861 1.35129,-2.32734 1.35129,-3.72376 0,-1.53217 -0.4181,-2.77341 -1.25459,-3.72376 -0.80431,-0.96973 -1.88191,-1.73606 -3.23316,-2.29851 -1.31907,-0.56244 -2.767,-0.97906 -4.34346,-1.25059 -1.57646,-0.29092 -3.24935,-0.55295 -5.01885,-0.78569 -1.2869,-0.15516 -2.54171,-0.32951 -3.76426,-0.52345 -1.19039,-0.19395 -2.25207,-0.43673 -3.18507,-0.72765 -0.90084,-0.31031 -1.62506,-0.70767 -2.17199,-1.19254 -0.54694,-0.48486 -0.82019,-1.10574 -0.82019,-1.86213 0,-0.62063 0.17721,-1.18271 0.53111,-1.68697 0.38607,-0.52366 0.98085,-0.97018 1.78517,-1.33868 0.80431,-0.38789 1.83414,-0.68844 3.08887,-0.90179 1.25474,-0.21334 2.76687,-0.31977 4.53636,-0.31977 2.09122,0.0194 4.11801,0.17448 6.08054,0.4654 1.99469,0.27153 3.95728,0.63037 5.88764,1.07645 v -3.84037 c -1.76949,-0.44607 -3.748,-0.81454 -5.93574,-1.10546 -2.15556,-0.29092 -4.5044,-0.43639 -7.04604,-0.43639 z" />
  </g>
</svg>
